# xmcd
#
# Track frame offsets: 
#        150
#        21414
#        37728
#        58120
#        85569
#        102779
#        122251
#        141972
#        165232
#        180586
#
# Disc length: 2699 seconds
#
# Revision: 0
# Processed by: cddbd v1.5.2PL0 Copyright (c) Steve Scherf et al.
# Submitted via: ExactAudioCopy v0.99pb4
#
DISCID=6e0a890a
DTITLE=Dorian Michael, Paul Olguin, Bill Severance - The Blues Neapoli
DTITLE=tans
DYEAR=2010
DGENRE=Blues
TTITLE0=Check  Out Her Mama (Fred James Jr)
TTITLE1=Take Out Some Insurance (Jimmy Reed)
TTITLE2=Nadine (Chuck Berry)
TTITLE3=Statesboro Blues (Willie McTell)
TTITLE4=Borrowed and Blue (various borrowings)
TTITLE5=Rock Me Baby
TTITLE6=Hey Good Lookin' (Hank Williams)
TTITLE7=Sweet Little Angel
TTITLE8=Sittin' On Top of the World
TTITLE9=Trouble In Mind
EXTD=
EXTT0=
EXTT1=
EXTT2=
EXTT3=
EXTT4=
EXTT5=
EXTT6=
EXTT7=
EXTT8=
EXTT9=
PLAYORDER=
